<svg id="Layer_1" data-name="Layer 1" xmlns="http://www.w3.org/2000/svg" viewBox="0 0 460.45 533.63"><defs><style>.cls-1{fill:#fff;}</style></defs><title>logo</title><path class="cls-1" d="M68,298.54q0-61,21.35-110.15t57.93-84.24A252.67,252.67,0,0,1,232.66,50.4q48.78-18.66,103.68-18.67,43.46,0,77.38,8.38T472,59.17q28.18,12.21,48.78,26.68l-80,141a274.33,274.33,0,0,0-26.68-17.53,259.33,259.33,0,0,0-30.88-11.82q-17.91-5.72-40.78-5.71a110.05,110.05,0,0,0-78.14,31.25A104.89,104.89,0,0,0,241.05,257a103.6,103.6,0,0,0-8.39,41.54,99.78,99.78,0,0,0,8.77,41.55,106.61,106.61,0,0,0,24,33.92,113.46,113.46,0,0,0,35.83,22.87,117.93,117.93,0,0,0,45,8.39q24.39,0,43.45-6.1t32-13.72a117.66,117.66,0,0,0,26.68-19.82l80.05,141q-20.58,16.77-48.79,29.73-24.41,10.68-58.7,19.82t-78.52,9.15q-59.46,0-109.78-19.44t-86.9-54.51q-36.6-35.06-57.18-84.24T68,298.54Zm96.05,0a186.1,186.1,0,0,1,12.58-68.61,166.84,166.84,0,0,1,35.45-55.65q22.88-23.61,55.65-37.35t73.18-13.72a212,212,0,0,1,35.45,2.67,160.64,160.64,0,0,1,26.3,6.47,100.68,100.68,0,0,1,22.11,9.15l10.67-18.29q-12.19-5.33-25.92-9.91a289.77,289.77,0,0,0-29.73-6.86,219.72,219.72,0,0,0-38.88-3,204,204,0,0,0-74.32,13.72,190.15,190.15,0,0,0-62.51,39.26Q177,181.92,160.62,218.12t-16.39,80.42q0,45,15.63,80.81a182.16,182.16,0,0,0,43.07,61.37A191.7,191.7,0,0,0,267,480a219.77,219.77,0,0,0,77.76,13.72,202,202,0,0,0,41.16-3.81,246,246,0,0,0,31.26-8.39,152.78,152.78,0,0,0,25.92-12.2L432.39,451a96.43,96.43,0,0,1-22.87,11.43,171.36,171.36,0,0,1-27.44,8q-16,3.44-37.35,3.43-41.94,0-75.47-13.72t-56.8-37.36a163.5,163.5,0,0,1-35.83-55.65A186,186,0,0,1,164.05,298.54Z" transform="translate(-68 -31.73)"/></svg>