<?xml version="1.0" standalone="no"?>
<!DOCTYPE svg PUBLIC "-//W3C//DTD SVG 20010904//EN"
 "http://www.w3.org/TR/2001/REC-SVG-20010904/DTD/svg10.dtd">
<svg version="1.0" xmlns="http://www.w3.org/2000/svg"
 width="2228.000000pt" height="2228.000000pt" viewBox="0 0 2228.000000 2228.000000"
 preserveAspectRatio="xMidYMid meet">
<metadata>
Created by potrace 1.11, written by Peter Selinger 2001-2013
</metadata>
<g transform="translate(0.000000,2228.000000) scale(0.100000,-0.100000)"
fill="#000000" stroke="none">
<path d="M12309 22256 c-2 -2 -80 -6 -174 -10 -93 -4 -188 -8 -210 -10 -22 -2
-89 -7 -150 -11 -60 -4 -121 -9 -135 -10 -14 -2 -63 -6 -110 -10 -47 -3 -98
-8 -115 -11 -16 -3 -52 -7 -80 -10 -27 -2 -70 -6 -95 -9 -25 -3 -63 -8 -85
-10 -46 -5 -109 -14 -145 -20 -14 -3 -45 -7 -70 -10 -39 -5 -86 -12 -205 -31
-16 -2 -41 -6 -55 -9 -14 -3 -41 -7 -60 -10 -87 -14 -433 -80 -520 -100 -8 -2
-37 -9 -65 -15 -27 -6 -61 -14 -75 -16 -14 -3 -33 -7 -42 -10 -10 -3 -30 -7
-45 -10 -16 -3 -48 -11 -73 -19 -25 -7 -61 -17 -80 -20 -19 -4 -75 -18 -125
-31 -96 -26 -109 -29 -250 -70 -49 -14 -103 -30 -120 -34 -16 -4 -66 -20 -110
-35 -44 -14 -87 -28 -95 -30 -37 -8 -344 -114 -537 -186 -201 -75 -510 -201
-653 -266 -36 -17 -87 -40 -115 -53 -86 -38 -486 -237 -575 -286 -374 -203
-822 -482 -1120 -697 -36 -26 -76 -55 -89 -64 -14 -10 -66 -49 -115 -86 -50
-37 -104 -78 -120 -90 -41 -30 -350 -279 -356 -286 -3 -4 -36 -33 -75 -66 -38
-33 -72 -62 -75 -65 -3 -3 -27 -25 -55 -49 -334 -296 -715 -685 -985 -1005
-41 -49 -82 -97 -90 -105 -21 -23 -228 -285 -281 -356 -24 -33 -46 -62 -49
-65 -3 -3 -17 -21 -30 -40 -13 -19 -27 -37 -30 -40 -12 -10 -238 -338 -322
-465 -232 -356 -436 -712 -639 -1115 -40 -80 -73 -147 -74 -150 -1 -3 -20 -45
-44 -95 -24 -49 -70 -151 -103 -225 -33 -74 -66 -148 -73 -165 -71 -155 -230
-580 -309 -825 -71 -219 -184 -607 -201 -690 -2 -8 -15 -62 -28 -120 -76 -317
-160 -748 -182 -927 -3 -27 -10 -70 -15 -98 -12 -70 -22 -147 -34 -260 -4 -33
-8 -71 -11 -85 -5 -28 -15 -125 -20 -185 -2 -22 -7 -69 -10 -105 -4 -36 -8
-83 -10 -105 -2 -36 -12 -183 -20 -290 -27 -363 -27 -1338 0 -1695 2 -30 7
-95 10 -145 4 -49 8 -108 10 -130 2 -22 6 -71 10 -110 3 -38 8 -83 10 -100 2
-16 7 -61 10 -100 4 -38 8 -81 10 -95 4 -22 19 -146 31 -240 2 -19 6 -50 9
-67 12 -82 17 -114 31 -203 9 -52 17 -106 19 -120 2 -14 11 -61 19 -105 8 -44
17 -93 20 -110 23 -126 102 -486 136 -620 11 -44 22 -88 25 -98 94 -387 334
-1100 488 -1449 8 -18 34 -78 57 -133 309 -723 759 -1504 1228 -2130 119 -158
376 -479 412 -515 3 -3 32 -36 65 -75 33 -38 62 -72 65 -75 3 -3 55 -59 115
-125 241 -263 616 -624 869 -836 16 -13 34 -29 40 -34 6 -6 38 -33 71 -60 33
-28 62 -52 65 -55 25 -27 434 -337 565 -429 186 -131 694 -461 710 -461 2 0
40 -22 85 -50 45 -27 83 -50 84 -50 2 0 46 -24 97 -53 179 -101 545 -290 552
-285 2 2 15 -5 29 -14 31 -21 422 -199 553 -252 50 -21 104 -43 120 -51 177
-79 720 -271 1060 -374 317 -95 839 -225 1075 -267 14 -3 57 -11 95 -19 39 -8
86 -17 105 -20 19 -3 71 -12 115 -20 44 -8 94 -17 110 -19 17 -3 89 -14 160
-25 72 -11 153 -23 180 -26 51 -6 81 -10 145 -19 19 -3 62 -8 95 -11 33 -3 71
-8 84 -10 12 -2 60 -7 105 -10 44 -4 88 -8 96 -10 8 -3 58 -7 110 -11 52 -3
102 -7 111 -9 9 -2 67 -6 130 -10 63 -4 130 -9 149 -11 122 -11 482 -19 910
-19 554 1 782 9 1175 40 33 3 87 7 120 10 63 4 141 12 215 20 25 3 70 7 100
10 61 6 281 34 320 40 14 2 48 7 75 10 51 7 219 32 265 40 14 3 53 10 88 15
54 9 325 62 387 75 11 3 36 8 55 12 96 20 209 47 375 90 217 57 238 62 430
117 88 26 169 48 179 51 100 24 887 276 951 305 11 4 54 20 95 34 203 67 651
245 880 349 178 80 551 269 730 370 246 138 431 251 655 400 294 196 612 439
607 463 -2 8 -25 53 -52 100 -28 47 -50 87 -50 90 0 2 -17 32 -38 66 -21 35
-54 92 -74 128 -20 36 -86 152 -147 259 -61 106 -111 195 -111 196 0 1 -38 69
-85 150 -47 81 -85 149 -85 151 0 2 -18 33 -40 69 -22 36 -40 67 -40 69 0 2
-58 105 -130 231 -71 125 -130 231 -130 236 0 5 -4 9 -10 9 -5 0 -10 5 -10 10
0 6 -24 52 -53 103 -30 50 -67 117 -84 147 -17 30 -57 100 -88 155 -32 55 -69
120 -83 145 -13 25 -50 88 -80 140 -30 52 -66 115 -79 140 -13 25 -37 68 -54
95 -16 28 -34 59 -39 70 -6 11 -14 27 -20 35 -11 17 -309 542 -360 635 -18 33
-36 65 -40 70 -4 6 -19 30 -32 55 -66 120 -413 731 -439 773 -16 26 -29 49
-29 51 0 2 -32 60 -71 128 -39 67 -83 143 -97 168 -13 25 -42 74 -62 110 -20
36 -48 85 -62 110 -30 53 -24 43 -210 370 -80 140 -156 275 -169 299 -13 24
-29 51 -34 60 -6 9 -39 67 -74 129 -35 62 -67 112 -72 110 -4 -2 -38 -33 -76
-69 -258 -249 -616 -514 -962 -711 -264 -150 -463 -251 -686 -346 -217 -92
-744 -283 -817 -296 -7 -1 -40 -10 -73 -20 -33 -10 -71 -20 -85 -22 -14 -3
-34 -8 -45 -11 -69 -23 -438 -93 -564 -108 -30 -4 -61 -8 -70 -10 -22 -4 -114
-14 -186 -21 -33 -2 -79 -7 -103 -9 -287 -25 -963 -26 -1098 -1 -11 2 -55 7
-99 11 -44 4 -82 8 -85 10 -3 1 -30 6 -61 9 -31 4 -67 9 -80 11 -13 3 -40 8
-59 11 -181 30 -475 103 -665 164 -321 104 -700 273 -944 421 -34 22 -65 39
-67 39 -3 0 -17 9 -32 19 -15 10 -76 52 -137 91 -60 40 -138 94 -172 119 -34
25 -74 55 -90 66 -15 11 -83 66 -151 123 -210 175 -446 414 -601 608 -35 43
-70 88 -80 99 -9 11 -27 36 -41 55 -13 19 -27 37 -30 40 -15 12 -203 305 -258
401 -170 297 -315 638 -407 959 -31 110 -81 317 -90 375 -1 11 -5 31 -8 45 -4
14 -9 45 -12 70 -3 25 -7 54 -9 65 -2 11 -7 49 -11 85 -3 36 -8 76 -10 90 -25
164 -24 711 1 899 3 20 7 54 9 76 5 56 14 126 20 155 3 13 12 65 20 115 46
265 167 673 264 890 10 22 29 65 42 95 47 109 187 378 258 494 127 210 250
378 421 580 101 120 309 331 420 426 41 36 77 68 80 71 16 18 212 169 308 238
109 78 365 241 378 241 3 0 18 8 32 19 30 20 221 118 347 176 299 139 746 281
1035 330 19 3 42 8 50 10 13 4 32 6 127 20 15 2 60 8 98 14 191 27 328 35 640
35 333 0 542 -11 775 -39 44 -6 248 -35 275 -40 378 -66 677 -152 1193 -341
394 -145 697 -278 872 -382 168 -100 393 -241 417 -262 7 -5 14 -10 17 -10 8
0 250 -166 405 -278 79 -57 147 -100 152 -95 7 8 54 88 103 178 13 22 70 123
128 225 58 102 120 212 138 245 18 33 41 72 51 87 11 14 19 28 19 31 0 3 41
76 90 162 50 86 90 159 90 161 0 3 11 22 25 44 14 22 39 66 56 97 17 32 55 99
84 148 28 50 112 196 185 325 73 129 179 316 235 415 57 99 112 196 122 215
128 228 185 327 193 340 5 8 27 47 48 85 22 39 161 284 309 545 148 261 281
495 295 520 14 25 69 121 122 214 53 93 96 170 96 172 0 1 20 37 45 79 41 69
229 400 293 515 14 25 42 74 62 110 32 54 162 284 372 655 21 39 43 77 48 85
8 14 39 68 99 173 11 21 21 39 21 41 0 7 -371 251 -495 325 -192 116 -216 130
-285 168 -30 17 -113 63 -185 103 -122 68 -595 304 -768 384 -676 312 -1397
571 -2207 791 -183 49 -241 65 -265 71 -5 1 -71 18 -145 37 -197 51 -429 104
-600 137 -30 5 -66 12 -80 15 -14 3 -65 12 -115 21 -49 8 -99 17 -110 18 -81
15 -275 45 -315 50 -19 2 -71 9 -115 15 -86 11 -121 16 -260 31 -117 13 -165
18 -250 25 -38 3 -86 8 -105 10 -19 2 -79 7 -132 10 -53 3 -112 8 -130 10 -18
2 -94 7 -168 10 -74 4 -173 9 -220 12 -102 5 -1156 13 -1161 9z m1246 -2999
c22 -3 83 -8 135 -12 129 -8 254 -19 353 -31 128 -15 146 -17 302 -39 133 -20
171 -25 199 -31 11 -2 37 -7 56 -10 19 -3 76 -14 125 -24 50 -10 107 -21 128
-24 21 -3 66 -13 100 -20 34 -8 105 -24 157 -36 52 -12 176 -42 275 -67 99
-25 185 -46 190 -47 53 -13 291 -83 320 -95 11 -5 106 -39 210 -76 105 -37
204 -73 220 -80 17 -7 117 -47 223 -89 106 -42 219 -89 253 -104 l60 -27 -216
-370 c-119 -203 -219 -373 -223 -377 -4 -4 -81 30 -172 76 -134 67 -294 137
-475 206 -35 13 -465 149 -490 155 -5 1 -17 4 -25 8 -96 35 -582 150 -730 172
-24 4 -47 8 -50 10 -3 1 -32 6 -65 10 -32 3 -62 8 -65 10 -3 1 -32 6 -65 10
-32 3 -62 8 -65 10 -3 1 -36 6 -73 10 -37 3 -76 8 -85 10 -9 1 -51 6 -92 10
-41 4 -82 8 -90 10 -8 2 -59 6 -114 10 -54 4 -110 8 -125 10 -209 26 -1157 26
-1391 0 -19 -2 -73 -6 -120 -10 -47 -3 -96 -8 -110 -10 -14 -2 -55 -7 -92 -10
-37 -3 -77 -8 -90 -10 -13 -3 -48 -7 -78 -10 -30 -3 -62 -7 -70 -10 -8 -2 -37
-6 -65 -9 -27 -3 -61 -8 -75 -11 -13 -2 -42 -7 -65 -10 -22 -3 -85 -14 -140
-25 -55 -10 -111 -21 -125 -24 -14 -2 -68 -14 -120 -26 -52 -12 -106 -23 -120
-26 -14 -3 -38 -9 -55 -14 -16 -5 -41 -11 -55 -14 -97 -17 -611 -174 -705
-215 -11 -5 -76 -30 -145 -56 -117 -45 -157 -61 -288 -121 -29 -13 -55 -24
-57 -24 -12 0 -347 -165 -467 -230 -348 -189 -738 -443 -1008 -657 -77 -61
-189 -154 -290 -242 -111 -97 -426 -410 -512 -509 -37 -42 -78 -88 -90 -102
-65 -70 -254 -308 -336 -420 -18 -25 -48 -65 -66 -90 -43 -59 -228 -336 -250
-375 -9 -16 -24 -42 -34 -57 -33 -51 -103 -172 -174 -303 -62 -113 -194 -383
-243 -495 -20 -47 -43 -99 -51 -116 -76 -170 -284 -767 -309 -885 -2 -10 -17
-66 -33 -125 -30 -109 -86 -342 -96 -399 -3 -16 -17 -91 -31 -165 -31 -166
-33 -173 -40 -235 -4 -27 -8 -57 -10 -65 -3 -8 -7 -37 -10 -65 -3 -27 -8 -61
-10 -75 -2 -14 -7 -50 -10 -80 -3 -30 -8 -71 -10 -90 -2 -19 -6 -66 -10 -105
-3 -38 -7 -90 -10 -115 -26 -286 -27 -1037 0 -1310 2 -19 6 -73 10 -120 3 -47
8 -92 10 -100 3 -8 7 -45 10 -81 3 -36 7 -76 10 -89 3 -13 7 -41 10 -62 5 -36
14 -100 20 -143 1 -11 5 -33 8 -50 4 -16 11 -57 16 -90 6 -33 12 -70 15 -81 2
-12 7 -37 10 -57 6 -40 80 -370 97 -432 5 -22 15 -58 20 -80 78 -315 273 -864
414 -1170 192 -417 439 -847 649 -1131 17 -23 38 -52 46 -64 8 -12 46 -63 84
-114 376 -497 836 -954 1311 -1303 77 -57 146 -107 152 -113 14 -12 341 -226
393 -257 201 -122 583 -323 800 -420 25 -11 71 -32 103 -47 205 -93 638 -249
902 -325 196 -56 543 -138 700 -166 17 -2 39 -6 50 -9 11 -2 36 -6 55 -10 19
-3 44 -8 55 -10 11 -2 56 -9 100 -16 44 -6 94 -14 110 -16 17 -3 47 -7 68 -9
22 -2 51 -6 65 -9 15 -3 54 -8 87 -11 33 -3 76 -8 95 -10 315 -36 601 -49
1040 -49 326 0 522 5 690 19 101 9 185 16 225 21 134 14 222 25 250 30 10 2
37 6 60 10 22 3 99 16 170 29 334 61 549 114 875 216 74 24 137 43 140 44 3 1
12 4 20 7 37 14 145 53 150 54 3 0 14 4 25 8 11 5 43 16 70 26 95 35 220 82
240 90 233 98 515 247 682 361 23 16 44 29 46 29 3 0 38 -57 79 -126 40 -70
83 -143 95 -163 13 -20 26 -43 30 -51 4 -8 47 -82 96 -165 49 -82 102 -173
118 -201 l28 -52 -77 -45 c-349 -202 -842 -419 -1212 -532 -272 -83 -662 -190
-760 -208 -14 -3 -77 -17 -140 -31 -63 -15 -131 -29 -150 -32 -19 -3 -62 -11
-95 -19 -33 -7 -82 -16 -110 -21 -27 -4 -54 -8 -60 -10 -24 -5 -112 -19 -190
-29 -27 -3 -75 -10 -105 -15 -30 -5 -84 -12 -120 -15 -35 -3 -78 -8 -95 -10
-101 -14 -240 -25 -510 -41 -44 -3 -244 -5 -445 -5 -319 -1 -476 3 -650 16
-25 2 -85 6 -135 9 -49 3 -106 8 -125 10 -19 2 -66 7 -105 11 -38 3 -81 8 -95
10 -14 2 -52 6 -85 10 -33 3 -71 8 -85 10 -14 2 -45 6 -70 9 -25 3 -83 12
-130 20 -47 8 -103 17 -125 20 -22 4 -51 8 -65 11 -14 3 -34 7 -45 9 -145 27
-193 37 -210 40 -11 3 -64 14 -117 25 -111 24 -450 108 -488 120 -14 5 -52 17
-85 26 -86 24 -406 124 -430 134 -11 5 -49 19 -85 32 -429 148 -921 370 -1295
584 -55 32 -120 69 -145 83 -73 41 -134 80 -360 227 -74 49 -137 91 -140 94
-3 3 -34 26 -70 50 -36 25 -110 79 -165 121 -55 42 -122 94 -150 115 -27 20
-72 56 -99 79 -27 22 -81 68 -120 101 -203 170 -530 487 -717 695 -393 436
-793 1004 -1046 1485 -6 11 -20 38 -32 60 -62 116 -261 535 -261 549 0 3 -13
33 -29 68 -115 252 -324 889 -386 1178 -2 8 -13 58 -25 110 -26 113 -46 216
-66 330 -3 14 -9 50 -15 80 -6 30 -12 68 -14 83 -2 15 -7 47 -10 70 -3 23 -8
53 -10 67 -2 14 -8 59 -14 100 -6 41 -12 91 -15 110 -9 60 -26 241 -41 430
-28 345 -28 1131 0 1445 2 22 6 74 9 115 4 41 8 91 11 110 3 19 7 60 10 90 6
66 10 93 30 235 8 61 17 124 19 140 2 17 7 48 11 70 4 22 9 49 11 60 2 11 9
46 14 77 6 32 13 70 16 85 29 162 109 493 159 661 20 68 38 131 40 140 2 10
20 64 40 122 20 58 38 112 40 120 2 8 13 40 25 70 12 30 28 75 37 100 81 232
347 809 489 1060 14 25 37 65 50 90 14 25 29 52 34 60 5 8 55 92 112 185 204
339 432 658 697 975 58 69 109 130 115 136 6 7 47 52 91 100 87 97 357 369
472 476 293 272 680 574 1033 804 135 88 339 214 346 214 3 0 21 11 42 23 94
60 405 222 587 307 154 72 186 86 315 139 69 29 134 56 145 60 36 16 178 69
270 101 50 17 106 37 125 45 37 14 273 88 400 126 294 85 792 193 1080 234 25
3 56 8 70 10 29 4 82 11 160 20 30 4 66 8 80 10 130 18 243 27 480 40 69 4
127 9 129 11 5 5 961 -4 1006 -9z"/>
</g>
</svg>
